# MagicaVoxel @ Ephtracy

# group
o 

# material
mtllib character_01.mtl
usemtl palette

# normals
vn -1 0 0
vn 1 0 0
vn 0 0 1
vn 0 0 -1
vn 0 -1 0
vn 0 1 0

# texcoords
vt 0.0800781 0.5
vt 0.0878906 0.5
vt 0.0917969 0.5

# verts
v -0.6 1.4 0.6
v -0.6 1.4 -0.2
v -0.6 1.6 0.7
v -0.6 1.6 0.6
v -0.6 1.7 0.7
v -0.6 1.7 -0.2
v -0.3 0 -0.6
v -0.3 0 -0.8
v -0.3 0.2 0
v -0.3 0.2 -0.4
v -0.3 0.2 -0.6
v -0.3 0.4 -0.8
v -0.3 0.4 -0.9
v -0.3 0.5 -0.3
v -0.3 0.5 -0.4
v -0.3 0.5 -0.6
v -0.3 0.5 -0.9
v -0.3 0.8 -0.5
v -0.3 0.8 -0.8
v -0.3 0.9 0.1
v -0.3 0.9 0
v -0.3 0.9 -0.3
v -0.3 0.9 -0.5
v -0.3 0.9 -0.6
v -0.3 0.9 -0.8
v -0.3 1.1 -0.4
v -0.3 1.1 -0.6
v -0.3 1.4 0.1
v -0.3 1.4 -0.2
v -0.3 1.6 -0.3
v -0.3 1.6 -0.4
v -0.3 1.7 -0.2
v -0.3 1.7 -0.3
v -0.2 1.1 -0.4
v -0.2 1.1 -0.5
v -0.2 1.2 -0.4
v -0.2 1.2 -0.5
v -0.2 1.6 -0.3
v -0.2 1.6 -0.4
v -0.2 1.7 -0.3
v -0.2 1.7 -0.4
v -0.2 1.8 0.1
v -0.2 1.8 0
v -0.2 1.8 -0.4
v -0.2 1.9 -0.1
v -0.2 1.9 -0.2
v -0.2 2 -0.2
v -0.2 2 -0.4
v -0.2 2.1 0.1
v -0.2 2.1 0
v -0.2 2.1 -0.1
v -0.2 2.1 -0.2
v -0.2 2.3 0.1
v -0.2 2.3 -0.1
v -0.2 2.3 -0.4
v -0.1 1.4 -0.4
v -0.1 1.4 -0.5
v -0.1 1.6 -0.4
v -0.1 1.6 -0.5
v -0.1 1.7 0
v -0.1 1.7 -0.4
v -0.1 1.8 0
v -0.1 1.8 -0.4
v -5.96046e-08 1.2 -0.4
v -5.96046e-08 1.2 -0.5
v -5.96046e-08 1.3 -0.4
v -5.96046e-08 1.3 -0.5
v 0.2 0 -0.6
v 0.2 0 -0.8
v 0.2 0.2 0
v 0.2 0.2 -0.4
v 0.2 0.2 -0.6
v 0.2 0.5 -0.3
v 0.2 0.5 -0.4
v 0.2 0.5 -0.6
v 0.2 0.5 -0.8
v 0.2 0.7 0
v 0.2 0.7 -0.3
v 0.2 1.5 -0.4
v 0.2 1.5 -0.5
v 0.2 1.6 -0.4
v 0.2 1.6 -0.5
v 0.3 0.9 -0.5
v 0.3 0.9 -0.6
v 0.3 1 -0.5
v 0.3 1 -0.6
v 0.4 0.8 -0.5
v 0.4 0.8 -0.7
v 0.4 0.9 -0.5
v 0.4 0.9 -0.6
v 0.4 0.9 -0.7
v 0.5 1.4 0.6
v 0.5 1.4 0.1
v 0.5 1.6 0.7
v 0.5 1.6 0.6
v 0.5 1.7 0.7
v 0.5 1.7 0.1
v -0.3 1.4 0.6
v -0.3 1.4 0.1
v -0.3 1.6 0.7
v -0.3 1.6 0.6
v -0.3 1.7 0.7
v -0.3 1.7 0.1
v -0.2 0.4 -0.8
v -0.2 0.4 -0.9
v -0.2 0.5 -0.8
v -0.2 0.5 -0.9
v -0.2 0.8 -0.5
v -0.2 0.8 -0.8
v -0.2 0.9 -0.5
v -0.2 0.9 -0.6
v -0.2 0.9 -0.8
v -0.2 1 -0.5
v -0.2 1 -0.6
v -0.1 0.1 -0.7
v -0.1 0.1 -0.8
v -0.1 0.4 -0.7
v -0.1 0.4 -0.8
v -0.1 1 -0.5
v -0.1 1 -0.6
v -0.1 1.1 -0.5
v -0.1 1.1 -0.6
v -5.96046e-08 0 -0.6
v -5.96046e-08 0 -0.8
v -5.96046e-08 0.1 -0.7
v -5.96046e-08 0.1 -0.8
v -5.96046e-08 0.2 0
v -5.96046e-08 0.2 -0.4
v -5.96046e-08 0.2 -0.6
v -5.96046e-08 0.4 -0.7
v -5.96046e-08 0.4 -0.8
v -5.96046e-08 0.5 -0.3
v -5.96046e-08 0.5 -0.4
v -5.96046e-08 0.5 -0.6
v -5.96046e-08 0.5 -0.8
v -5.96046e-08 0.7 0
v -5.96046e-08 0.7 -0.3
v -5.96046e-08 1.5 -0.4
v -5.96046e-08 1.5 -0.5
v -5.96046e-08 1.6 -0.4
v -5.96046e-08 1.6 -0.5
v 0.2 1.2 -0.4
v 0.2 1.2 -0.5
v 0.2 1.3 -0.4
v 0.2 1.3 -0.5
v 0.3 1.4 -0.4
v 0.3 1.4 -0.5
v 0.3 1.6 -0.4
v 0.3 1.6 -0.5
v 0.3 1.7 0
v 0.3 1.7 -0.4
v 0.3 1.8 0
v 0.3 1.8 -0.4
v 0.4 0 -0.7
v 0.4 0 -0.8
v 0.4 0.1 -0.7
v 0.4 0.1 -0.8
v 0.4 0.4 -0.7
v 0.4 0.4 -0.8
v 0.4 0.5 -0.7
v 0.4 0.5 -0.8
v 0.4 1.1 -0.4
v 0.4 1.1 -0.5
v 0.4 1.2 -0.4
v 0.4 1.2 -0.5
v 0.4 1.3 -0.3
v 0.4 1.3 -0.4
v 0.4 1.4 -0.3
v 0.4 1.4 -0.4
v 0.4 1.6 -0.3
v 0.4 1.6 -0.4
v 0.4 1.7 -0.3
v 0.4 1.7 -0.4
v 0.4 1.8 0.1
v 0.4 1.8 0
v 0.4 1.8 -0.4
v 0.4 1.9 -0.1
v 0.4 1.9 -0.2
v 0.4 2 -0.2
v 0.4 2 -0.4
v 0.4 2.1 0.1
v 0.4 2.1 0
v 0.4 2.1 -0.1
v 0.4 2.1 -0.2
v 0.4 2.3 0.1
v 0.4 2.3 -0.1
v 0.4 2.3 -0.4
v 0.5 0 -0.6
v 0.5 0 -0.7
v 0.5 0.1 -0.7
v 0.5 0.1 -0.8
v 0.5 0.2 0
v 0.5 0.2 -0.4
v 0.5 0.2 -0.6
v 0.5 0.4 -0.7
v 0.5 0.4 -0.8
v 0.5 0.5 -0.3
v 0.5 0.5 -0.4
v 0.5 0.5 -0.6
v 0.5 0.5 -0.7
v 0.5 0.8 -0.5
v 0.5 0.8 -0.7
v 0.5 0.9 0.1
v 0.5 0.9 0
v 0.5 0.9 -0.3
v 0.5 0.9 -0.5
v 0.5 0.9 -0.6
v 0.5 0.9 -0.7
v 0.5 1 -0.5
v 0.5 1 -0.6
v 0.5 1.1 -0.4
v 0.5 1.1 -0.5
v 0.5 1.3 -0.3
v 0.5 1.3 -0.4
v 0.5 1.4 0.1
v 0.5 1.4 -0.2
v 0.5 1.4 -0.3
v 0.5 1.4 -0.4
v 0.5 1.6 -0.3
v 0.5 1.6 -0.4
v 0.5 1.7 -0.2
v 0.5 1.7 -0.3
v 0.8 1.4 0.6
v 0.8 1.4 -0.2
v 0.8 1.6 0.7
v 0.8 1.6 0.6
v 0.8 1.7 0.7
v 0.8 1.7 -0.2
v -0.6 1.6 0.7
v -0.6 1.7 0.7
v -0.3 1.6 0.7
v -0.3 1.7 0.7
v 0.5 1.6 0.7
v 0.5 1.7 0.7
v 0.8 1.6 0.7
v 0.8 1.7 0.7
v -0.6 1.4 0.6
v -0.6 1.6 0.6
v -0.3 1.4 0.6
v -0.3 1.6 0.6
v 0.5 1.4 0.6
v 0.5 1.6 0.6
v 0.8 1.4 0.6
v 0.8 1.6 0.6
v -0.3 0.9 0.1
v -0.3 1.4 0.1
v -0.3 1.7 0.1
v -0.2 1.8 0.1
v -0.2 2.1 0.1
v -0.2 2.3 0.1
v -0.1 1.8 0.1
v -0.1 2 0.1
v -0.1 2.1 0.1
v -0.1 2.2 0.1
v -5.96046e-08 1.8 0.1
v -5.96046e-08 1.9 0.1
v -5.96046e-08 2 0.1
v -5.96046e-08 2.2 0.1
v 0.2 1.8 0.1
v 0.2 1.9 0.1
v 0.2 2 0.1
v 0.2 2.2 0.1
v 0.3 1.8 0.1
v 0.3 2 0.1
v 0.3 2.1 0.1
v 0.3 2.2 0.1
v 0.4 1.8 0.1
v 0.4 2.1 0.1
v 0.4 2.3 0.1
v 0.5 0.9 0.1
v 0.5 1.4 0.1
v 0.5 1.7 0.1
v -0.3 0.2 0
v -0.3 0.9 0
v -0.1 1.7 0
v -0.1 1.8 0
v -5.96046e-08 0.2 0
v -5.96046e-08 0.7 0
v -5.96046e-08 0.9 0
v -5.96046e-08 1.8 0
v 0.2 0.2 0
v 0.2 0.7 0
v 0.2 0.9 0
v 0.2 1.8 0
v 0.3 1.7 0
v 0.3 1.8 0
v 0.5 0.2 0
v 0.5 0.9 0
v -0.3 0.8 -0.5
v -0.3 0.9 -0.5
v -0.2 0.8 -0.5
v -0.2 0.9 -0.5
v 0.4 0.8 -0.5
v 0.4 0.9 -0.5
v 0.5 0.8 -0.5
v 0.5 0.9 -0.5
v -0.3 0 -0.6
v -0.3 0.2 -0.6
v -5.96046e-08 0 -0.6
v -5.96046e-08 0.2 -0.6
v 0.2 0 -0.6
v 0.2 0.2 -0.6
v 0.5 0 -0.6
v 0.5 0.2 -0.6
v -0.6 1.4 -0.2
v -0.6 1.7 -0.2
v -0.3 1.4 -0.2
v -0.3 1.7 -0.2
v 0.5 1.4 -0.2
v 0.5 1.7 -0.2
v 0.8 1.4 -0.2
v 0.8 1.7 -0.2
v -0.3 0.5 -0.3
v -0.3 0.9 -0.3
v -0.3 1.6 -0.3
v -0.3 1.7 -0.3
v -0.2 1.6 -0.3
v -0.2 1.7 -0.3
v -5.96046e-08 0.5 -0.3
v -5.96046e-08 0.7 -0.3
v -5.96046e-08 0.9 -0.3
v 0.2 0.5 -0.3
v 0.2 0.7 -0.3
v 0.2 0.9 -0.3
v 0.4 1.3 -0.3
v 0.4 1.4 -0.3
v 0.4 1.6 -0.3
v 0.4 1.7 -0.3
v 0.5 0.5 -0.3
v 0.5 0.9 -0.3
v 0.5 1.3 -0.3
v 0.5 1.4 -0.3
v 0.5 1.6 -0.3
v 0.5 1.7 -0.3
v -0.3 1.1 -0.4
v -0.3 1.6 -0.4
v -0.2 1.1 -0.4
v -0.2 1.2 -0.4
v -0.2 1.6 -0.4
v -0.2 1.7 -0.4
v -0.2 1.8 -0.4
v -0.2 2 -0.4
v -0.2 2.3 -0.4
v -0.1 1.4 -0.4
v -0.1 1.6 -0.4
v -0.1 1.7 -0.4
v -0.1 1.8 -0.4
v -5.96046e-08 1.2 -0.4
v -5.96046e-08 1.3 -0.4
v -5.96046e-08 1.5 -0.4
v -5.96046e-08 1.6 -0.4
v 0.2 1.2 -0.4
v 0.2 1.3 -0.4
v 0.2 1.5 -0.4
v 0.2 1.6 -0.4
v 0.3 1.4 -0.4
v 0.3 1.6 -0.4
v 0.3 1.7 -0.4
v 0.3 1.8 -0.4
v 0.4 1.1 -0.4
v 0.4 1.2 -0.4
v 0.4 1.3 -0.4
v 0.4 1.4 -0.4
v 0.4 1.6 -0.4
v 0.4 1.7 -0.4
v 0.4 1.8 -0.4
v 0.4 2 -0.4
v 0.4 2.3 -0.4
v 0.5 1.1 -0.4
v 0.5 1.3 -0.4
v 0.5 1.4 -0.4
v 0.5 1.6 -0.4
v -0.2 0.9 -0.5
v -0.2 1 -0.5
v -0.2 1.1 -0.5
v -0.2 1.2 -0.5
v -0.1 1 -0.5
v -0.1 1.1 -0.5
v -0.1 1.4 -0.5
v -0.1 1.6 -0.5
v -5.96046e-08 1.2 -0.5
v -5.96046e-08 1.3 -0.5
v -5.96046e-08 1.5 -0.5
v -5.96046e-08 1.6 -0.5
v 0.2 1.2 -0.5
v 0.2 1.3 -0.5
v 0.2 1.5 -0.5
v 0.2 1.6 -0.5
v 0.3 0.9 -0.5
v 0.3 1 -0.5
v 0.3 1.4 -0.5
v 0.3 1.6 -0.5
v 0.4 1.1 -0.5
v 0.4 1.2 -0.5
v 0.5 1 -0.5
v 0.5 1.1 -0.5
v -0.3 0.9 -0.6
v -0.3 1.1 -0.6
v -0.2 0.9 -0.6
v -0.2 1 -0.6
v -0.1 1 -0.6
v -0.1 1.1 -0.6
v 0.3 0.9 -0.6
v 0.3 1 -0.6
v 0.4 0.9 -0.6
v 0.5 0.9 -0.6
v 0.5 1 -0.6
v -0.1 0.1 -0.7
v -0.1 0.4 -0.7
v -5.96046e-08 0.1 -0.7
v -5.96046e-08 0.4 -0.7
v 0.4 0 -0.7
v 0.4 0.1 -0.7
v 0.4 0.4 -0.7
v 0.4 0.5 -0.7
v 0.4 0.8 -0.7
v 0.4 0.9 -0.7
v 0.5 0 -0.7
v 0.5 0.1 -0.7
v 0.5 0.4 -0.7
v 0.5 0.5 -0.7
v 0.5 0.8 -0.7
v 0.5 0.9 -0.7
v -0.3 0 -0.8
v -0.3 0.4 -0.8
v -0.3 0.8 -0.8
v -0.3 0.9 -0.8
v -0.2 0.4 -0.8
v -0.2 0.5 -0.8
v -0.2 0.8 -0.8
v -0.2 0.9 -0.8
v -0.1 0.1 -0.8
v -0.1 0.4 -0.8
v -5.96046e-08 0 -0.8
v -5.96046e-08 0.1 -0.8
v -5.96046e-08 0.4 -0.8
v -5.96046e-08 0.5 -0.8
v 0.2 0 -0.8
v 0.2 0.5 -0.8
v 0.4 0 -0.8
v 0.4 0.1 -0.8
v 0.4 0.4 -0.8
v 0.4 0.5 -0.8
v 0.5 0.1 -0.8
v 0.5 0.4 -0.8
v -0.3 0.4 -0.9
v -0.3 0.5 -0.9
v -0.2 0.4 -0.9
v -0.2 0.5 -0.9
v -0.3 0 -0.6
v -5.96046e-08 0 -0.6
v 0.2 0 -0.6
v 0.5 0 -0.6
v 0.4 0 -0.7
v 0.5 0 -0.7
v -0.3 0 -0.8
v -5.96046e-08 0 -0.8
v 0.2 0 -0.8
v 0.4 0 -0.8
v 0.4 0.1 -0.7
v 0.5 0.1 -0.7
v 0.4 0.1 -0.8
v 0.5 0.1 -0.8
v -0.3 0.2 0
v -5.96046e-08 0.2 0
v 0.2 0.2 0
v 0.5 0.2 0
v -0.3 0.2 -0.4
v -5.96046e-08 0.2 -0.4
v 0.2 0.2 -0.4
v 0.5 0.2 -0.4
v -0.3 0.2 -0.6
v -5.96046e-08 0.2 -0.6
v 0.2 0.2 -0.6
v 0.5 0.2 -0.6
v -0.1 0.4 -0.7
v -5.96046e-08 0.4 -0.7
v -0.3 0.4 -0.8
v -0.2 0.4 -0.8
v -0.1 0.4 -0.8
v -5.96046e-08 0.4 -0.8
v -0.3 0.4 -0.9
v -0.2 0.4 -0.9
v -5.96046e-08 0.7 0
v 0.2 0.7 0
v -5.96046e-08 0.7 -0.3
v 0.2 0.7 -0.3
v -0.3 0.8 -0.5
v -0.2 0.8 -0.5
v 0.4 0.8 -0.5
v 0.5 0.8 -0.5
v 0.4 0.8 -0.7
v 0.5 0.8 -0.7
v -0.3 0.8 -0.8
v -0.2 0.8 -0.8
v -0.3 0.9 0.1
v 0.5 0.9 0.1
v -0.3 0.9 0
v -5.96046e-08 0.9 0
v 0.2 0.9 0
v 0.5 0.9 0
v -0.3 0.9 -0.3
v -5.96046e-08 0.9 -0.3
v 0.2 0.9 -0.3
v 0.5 0.9 -0.3
v -0.3 0.9 -0.5
v -0.2 0.9 -0.5
v 0.3 0.9 -0.5
v 0.4 0.9 -0.5
v 0.5 0.9 -0.5
v 0.3 0.9 -0.6
v 0.4 0.9 -0.6
v -0.2 1 -0.5
v -0.1 1 -0.5
v -0.2 1 -0.6
v -0.1 1 -0.6
v -0.6 1.4 0.6
v -0.3 1.4 0.6
v 0.5 1.4 0.6
v 0.8 1.4 0.6
v -0.3 1.4 0.1
v 0.5 1.4 0.1
v -0.6 1.4 -0.2
v -0.3 1.4 -0.2
v 0.5 1.4 -0.2
v 0.8 1.4 -0.2
v 0.4 1.4 -0.3
v 0.5 1.4 -0.3
v -0.1 1.4 -0.4
v 0.3 1.4 -0.4
v 0.4 1.4 -0.4
v 0.5 1.4 -0.4
v -0.1 1.4 -0.5
v 0.3 1.4 -0.5
v -0.6 1.6 0.7
v -0.3 1.6 0.7
v 0.5 1.6 0.7
v 0.8 1.6 0.7
v -0.6 1.6 0.6
v -0.3 1.6 0.6
v 0.5 1.6 0.6
v 0.8 1.6 0.6
v -0.2 1.8 0.1
v -0.1 1.8 0.1
v -5.96046e-08 1.8 0.1
v 0.2 1.8 0.1
v 0.3 1.8 0.1
v 0.4 1.8 0.1
v -0.2 1.8 0
v -0.1 1.8 0
v -5.96046e-08 1.8 0
v 0.2 1.8 0
v 0.3 1.8 0
v 0.4 1.8 0
v -0.2 1.8 -0.4
v -0.1 1.8 -0.4
v 0.3 1.8 -0.4
v 0.4 1.8 -0.4
v -0.1 0.1 -0.7
v -5.96046e-08 0.1 -0.7
v -0.1 0.1 -0.8
v -5.96046e-08 0.1 -0.8
v 0.4 0.4 -0.7
v 0.5 0.4 -0.7
v 0.4 0.4 -0.8
v 0.5 0.4 -0.8
v -0.3 0.5 -0.3
v -5.96046e-08 0.5 -0.3
v 0.2 0.5 -0.3
v 0.5 0.5 -0.3
v -0.3 0.5 -0.4
v -5.96046e-08 0.5 -0.4
v 0.2 0.5 -0.4
v 0.5 0.5 -0.4
v -0.3 0.5 -0.6
v -5.96046e-08 0.5 -0.6
v 0.2 0.5 -0.6
v 0.5 0.5 -0.6
v 0.4 0.5 -0.7
v 0.5 0.5 -0.7
v -0.2 0.5 -0.8
v -5.96046e-08 0.5 -0.8
v 0.2 0.5 -0.8
v 0.4 0.5 -0.8
v -0.3 0.5 -0.9
v -0.2 0.5 -0.9
v -0.3 0.9 -0.6
v -0.2 0.9 -0.6
v 0.4 0.9 -0.6
v 0.5 0.9 -0.6
v 0.4 0.9 -0.7
v 0.5 0.9 -0.7
v -0.3 0.9 -0.8
v -0.2 0.9 -0.8
v 0.3 1 -0.5
v 0.5 1 -0.5
v 0.3 1 -0.6
v 0.5 1 -0.6
v -0.3 1.1 -0.4
v -0.2 1.1 -0.4
v 0.4 1.1 -0.4
v 0.5 1.1 -0.4
v -0.2 1.1 -0.5
v -0.1 1.1 -0.5
v 0.4 1.1 -0.5
v 0.5 1.1 -0.5
v -0.3 1.1 -0.6
v -0.1 1.1 -0.6
v -0.2 1.2 -0.4
v -5.96046e-08 1.2 -0.4
v 0.2 1.2 -0.4
v 0.4 1.2 -0.4
v -0.2 1.2 -0.5
v -5.96046e-08 1.2 -0.5
v 0.2 1.2 -0.5
v 0.4 1.2 -0.5
v 0.4 1.3 -0.3
v 0.5 1.3 -0.3
v -5.96046e-08 1.3 -0.4
v 0.2 1.3 -0.4
v 0.4 1.3 -0.4
v 0.5 1.3 -0.4
v -5.96046e-08 1.3 -0.5
v 0.2 1.3 -0.5
v -5.96046e-08 1.5 -0.4
v 0.2 1.5 -0.4
v -5.96046e-08 1.5 -0.5
v 0.2 1.5 -0.5
v -0.3 1.6 -0.3
v -0.2 1.6 -0.3
v 0.4 1.6 -0.3
v 0.5 1.6 -0.3
v -0.3 1.6 -0.4
v -0.2 1.6 -0.4
v -0.1 1.6 -0.4
v -5.96046e-08 1.6 -0.4
v 0.2 1.6 -0.4
v 0.3 1.6 -0.4
v 0.4 1.6 -0.4
v 0.5 1.6 -0.4
v -0.1 1.6 -0.5
v -5.96046e-08 1.6 -0.5
v 0.2 1.6 -0.5
v 0.3 1.6 -0.5
v -0.6 1.7 0.7
v -0.3 1.7 0.7
v 0.5 1.7 0.7
v 0.8 1.7 0.7
v -0.3 1.7 0.1
v 0.5 1.7 0.1
v -0.1 1.7 0
v 0.3 1.7 0
v -0.6 1.7 -0.2
v -0.3 1.7 -0.2
v 0.5 1.7 -0.2
v 0.8 1.7 -0.2
v -0.3 1.7 -0.3
v -0.2 1.7 -0.3
v 0.4 1.7 -0.3
v 0.5 1.7 -0.3
v -0.2 1.7 -0.4
v -0.1 1.7 -0.4
v 0.3 1.7 -0.4
v 0.4 1.7 -0.4
v -0.2 2.3 0.1
v 0.4 2.3 0.1
v -0.2 2.3 -0.1
v 0.4 2.3 -0.1
v -0.2 2.3 -0.4
v 0.4 2.3 -0.4

# faces
f 4/3/1 2/3/1 1/3/1
f 5/3/1 4/3/1 3/3/1
f 6/3/1 2/3/1 4/3/1
f 6/3/1 4/3/1 5/3/1
f 11/1/1 8/1/1 7/1/1
f 12/1/1 8/1/1 11/1/1
f 14/3/1 10/3/1 9/3/1
f 15/2/1 11/2/1 10/2/1
f 15/3/1 10/3/1 14/3/1
f 16/1/1 13/1/1 12/1/1
f 16/2/1 11/2/1 15/2/1
f 16/1/1 12/1/1 11/1/1
f 17/1/1 13/1/1 16/1/1
f 21/3/1 14/3/1 9/3/1
f 22/3/1 14/3/1 21/3/1
f 23/2/1 19/2/1 18/2/1
f 24/2/1 19/2/1 23/2/1
f 25/2/1 19/2/1 24/2/1
f 26/2/1 22/2/1 21/2/1
f 26/2/1 21/2/1 20/2/1
f 26/2/1 24/2/1 23/2/1
f 26/2/1 23/2/1 22/2/1
f 27/2/1 24/2/1 26/2/1
f 28/2/1 26/2/1 20/2/1
f 29/2/1 26/2/1 28/2/1
f 30/2/1 26/2/1 29/2/1
f 31/2/1 26/2/1 30/2/1
f 32/2/1 30/2/1 29/2/1
f 33/2/1 30/2/1 32/2/1
f 36/2/1 35/2/1 34/2/1
f 37/2/1 35/2/1 36/2/1
f 40/2/1 39/2/1 38/2/1
f 41/2/1 39/2/1 40/2/1
f 45/3/1 44/3/1 43/3/1
f 46/3/1 44/3/1 45/3/1
f 47/1/1 46/1/1 45/1/1
f 47/3/1 44/3/1 46/3/1
f 48/3/1 44/3/1 47/3/1
f 49/2/1 43/2/1 42/2/1
f 50/3/1 45/3/1 43/3/1
f 50/2/1 43/2/1 49/2/1
f 51/1/1 47/1/1 45/1/1
f 51/3/1 45/3/1 50/3/1
f 52/2/1 48/2/1 47/2/1
f 52/1/1 47/1/1 51/1/1
f 53/3/1 50/3/1 49/3/1
f 53/3/1 51/3/1 50/3/1
f 54/2/1 52/2/1 51/2/1
f 54/3/1 51/3/1 53/3/1
f 55/2/1 48/2/1 52/2/1
f 55/2/1 52/2/1 54/2/1
f 58/2/1 57/2/1 56/2/1
f 59/2/1 57/2/1 58/2/1
f 62/3/1 61/3/1 60/3/1
f 63/3/1 61/3/1 62/3/1
f 66/2/1 65/2/1 64/2/1
f 67/2/1 65/2/1 66/2/1
f 72/1/1 69/1/1 68/1/1
f 73/3/1 71/3/1 70/3/1
f 74/2/1 72/2/1 71/2/1
f 74/3/1 71/3/1 73/3/1
f 75/1/1 69/1/1 72/1/1
f 75/2/1 72/2/1 74/2/1
f 76/1/1 69/1/1 75/1/1
f 77/3/1 73/3/1 70/3/1
f 78/3/1 73/3/1 77/3/1
f 81/2/1 80/2/1 79/2/1
f 82/2/1 80/2/1 81/2/1
f 85/2/1 84/2/1 83/2/1
f 86/2/1 84/2/1 85/2/1
f 89/2/1 88/2/1 87/2/1
f 90/2/1 88/2/1 89/2/1
f 91/2/1 88/2/1 90/2/1
f 95/3/1 93/3/1 92/3/1
f 96/3/1 95/3/1 94/3/1
f 97/3/1 93/3/1 95/3/1
f 97/3/1 95/3/1 96/3/1
f 98/3/2 99/3/2 101/3/2
f 100/3/2 101/3/2 102/3/2
f 101/3/2 99/3/2 103/3/2
f 102/3/2 101/3/2 103/3/2
f 104/1/2 105/1/2 106/1/2
f 106/1/2 105/1/2 107/1/2
f 108/2/2 109/2/2 110/2/2
f 110/2/2 109/2/2 111/2/2
f 111/2/2 109/2/2 112/2/2
f 110/2/2 111/2/2 113/2/2
f 113/2/2 111/2/2 114/2/2
f 115/1/2 116/1/2 117/1/2
f 117/1/2 116/1/2 118/1/2
f 119/2/2 120/2/2 121/2/2
f 121/2/2 120/2/2 122/2/2
f 123/1/2 124/1/2 125/1/2
f 125/1/2 124/1/2 126/1/2
f 123/1/2 125/1/2 129/1/2
f 129/1/2 125/1/2 130/1/2
f 127/3/2 128/3/2 132/3/2
f 128/2/2 129/2/2 133/2/2
f 132/3/2 128/3/2 133/3/2
f 130/1/2 131/1/2 134/1/2
f 133/2/2 129/2/2 134/2/2
f 129/1/2 130/1/2 134/1/2
f 134/1/2 131/1/2 135/1/2
f 127/3/2 132/3/2 136/3/2
f 136/3/2 132/3/2 137/3/2
f 138/2/2 139/2/2 140/2/2
f 140/2/2 139/2/2 141/2/2
f 142/2/2 143/2/2 144/2/2
f 144/2/2 143/2/2 145/2/2
f 146/2/2 147/2/2 148/2/2
f 148/2/2 147/2/2 149/2/2
f 150/3/2 151/3/2 152/3/2
f 152/3/2 151/3/2 153/3/2
f 154/1/2 155/1/2 156/1/2
f 156/1/2 155/1/2 157/1/2
f 158/1/2 159/1/2 160/1/2
f 160/1/2 159/1/2 161/1/2
f 162/2/2 163/2/2 164/2/2
f 164/2/2 163/2/2 165/2/2
f 166/2/2 167/2/2 168/2/2
f 168/2/2 167/2/2 169/2/2
f 170/2/2 171/2/2 172/2/2
f 172/2/2 171/2/2 173/2/2
f 175/3/2 176/3/2 177/3/2
f 177/3/2 176/3/2 178/3/2
f 177/1/2 178/1/2 179/1/2
f 178/3/2 176/3/2 179/3/2
f 179/3/2 176/3/2 180/3/2
f 174/2/2 175/2/2 181/2/2
f 175/3/2 177/3/2 182/3/2
f 181/2/2 175/2/2 182/2/2
f 177/1/2 179/1/2 183/1/2
f 182/3/2 177/3/2 183/3/2
f 179/2/2 180/2/2 184/2/2
f 183/1/2 179/1/2 184/1/2
f 181/3/2 182/3/2 185/3/2
f 182/3/2 183/3/2 185/3/2
f 183/2/2 184/2/2 186/2/2
f 185/3/2 183/3/2 186/3/2
f 184/2/2 180/2/2 187/2/2
f 186/2/2 184/2/2 187/2/2
f 188/1/2 189/1/2 190/1/2
f 188/1/2 190/1/2 194/1/2
f 190/1/2 191/1/2 194/1/2
f 194/1/2 191/1/2 195/1/2
f 195/1/2 191/1/2 196/1/2
f 192/3/2 193/3/2 197/3/2
f 193/2/2 194/2/2 198/2/2
f 197/3/2 193/3/2 198/3/2
f 194/1/2 195/1/2 199/1/2
f 198/2/2 194/2/2 199/2/2
f 199/1/2 195/1/2 200/1/2
f 192/3/2 197/3/2 204/3/2
f 204/3/2 197/3/2 205/3/2
f 201/2/2 202/2/2 206/2/2
f 206/2/2 202/2/2 207/2/2
f 207/2/2 202/2/2 208/2/2
f 204/2/2 205/2/2 209/2/2
f 203/2/2 204/2/2 209/2/2
f 206/2/2 207/2/2 209/2/2
f 205/2/2 206/2/2 209/2/2
f 209/2/2 207/2/2 210/2/2
f 203/2/2 209/2/2 211/2/2
f 211/2/2 209/2/2 212/2/2
f 203/2/2 211/2/2 213/2/2
f 213/2/2 211/2/2 214/2/2
f 203/2/2 213/2/2 215/2/2
f 215/2/2 213/2/2 216/2/2
f 216/2/2 213/2/2 217/2/2
f 217/2/2 218/2/2 219/2/2
f 216/2/2 217/2/2 219/2/2
f 219/2/2 218/2/2 220/2/2
f 216/2/2 219/2/2 221/2/2
f 221/2/2 219/2/2 222/2/2
f 223/3/2 224/3/2 226/3/2
f 225/3/2 226/3/2 227/3/2
f 226/3/2 224/3/2 228/3/2
f 227/3/2 226/3/2 228/3/2
f 231/3/3 230/3/3 229/3/3
f 232/3/3 230/3/3 231/3/3
f 235/3/3 234/3/3 233/3/3
f 236/3/3 234/3/3 235/3/3
f 239/3/3 238/3/3 237/3/3
f 240/3/3 238/3/3 239/3/3
f 243/3/3 242/3/3 241/3/3
f 244/3/3 242/3/3 243/3/3
f 251/2/3 249/2/3 248/2/3
f 252/2/3 249/2/3 251/2/3
f 253/3/3 250/3/3 249/3/3
f 253/2/3 249/2/3 252/2/3
f 254/3/3 250/3/3 253/3/3
f 255/3/3 252/3/3 251/3/3
f 256/3/3 252/3/3 255/3/3
f 257/1/3 253/1/3 252/1/3
f 257/3/3 252/3/3 256/3/3
f 257/1/3 254/1/3 253/1/3
f 258/3/3 250/3/3 254/3/3
f 258/1/3 254/1/3 257/1/3
f 259/1/3 256/1/3 255/1/3
f 260/3/3 257/3/3 256/3/3
f 260/1/3 256/1/3 259/1/3
f 260/3/3 258/3/3 257/3/3
f 261/3/3 258/3/3 260/3/3
f 262/3/3 250/3/3 258/3/3
f 262/3/3 258/3/3 261/3/3
f 263/3/3 261/3/3 260/3/3
f 263/3/3 260/3/3 259/3/3
f 264/1/3 262/1/3 261/1/3
f 264/3/3 261/3/3 263/3/3
f 265/1/3 262/1/3 264/1/3
f 266/3/3 250/3/3 262/3/3
f 266/1/3 262/1/3 265/1/3
f 267/2/3 265/2/3 264/2/3
f 267/2/3 264/2/3 263/2/3
f 268/3/3 266/3/3 265/3/3
f 268/2/3 265/2/3 267/2/3
f 269/3/3 250/3/3 266/3/3
f 269/3/3 266/3/3 268/3/3
f 270/2/3 246/2/3 245/2/3
f 270/2/3 247/2/3 246/2/3
f 271/2/3 247/2/3 270/2/3
f 272/2/3 247/2/3 271/2/3
f 277/3/3 274/3/3 273/3/3
f 278/3/3 274/3/3 277/3/3
f 279/3/3 274/3/3 278/3/3
f 280/3/3 276/3/3 275/3/3
f 282/2/3 279/2/3 278/2/3
f 283/2/3 279/2/3 282/2/3
f 284/3/3 280/3/3 275/3/3
f 285/3/3 284/3/3 275/3/3
f 286/3/3 284/3/3 285/3/3
f 287/3/3 283/3/3 282/3/3
f 287/3/3 282/3/3 281/3/3
f 288/3/3 283/3/3 287/3/3
f 291/2/3 290/2/3 289/2/3
f 292/2/3 290/2/3 291/2/3
f 295/2/3 294/2/3 293/2/3
f 296/2/3 294/2/3 295/2/3
f 299/1/3 298/1/3 297/1/3
f 300/1/3 298/1/3 299/1/3
f 303/1/3 302/1/3 301/1/3
f 304/1/3 302/1/3 303/1/3
f 305/3/4 306/3/4 307/3/4
f 307/3/4 306/3/4 308/3/4
f 309/3/4 310/3/4 311/3/4
f 311/3/4 310/3/4 312/3/4
f 315/2/4 316/2/4 317/2/4
f 317/2/4 316/2/4 318/2/4
f 313/3/4 314/3/4 319/3/4
f 319/3/4 314/3/4 320/3/4
f 320/3/4 314/3/4 321/3/4
f 320/2/4 321/2/4 323/2/4
f 323/2/4 321/2/4 324/2/4
f 323/3/4 324/3/4 329/3/4
f 322/3/4 323/3/4 329/3/4
f 329/3/4 324/3/4 330/3/4
f 325/2/4 326/2/4 331/2/4
f 331/2/4 326/2/4 332/2/4
f 327/2/4 328/2/4 333/2/4
f 333/2/4 328/2/4 334/2/4
f 335/2/4 336/2/4 337/2/4
f 337/2/4 336/2/4 338/2/4
f 338/2/4 336/2/4 339/2/4
f 338/2/4 339/2/4 344/2/4
f 339/2/4 340/2/4 344/2/4
f 344/2/4 340/2/4 345/2/4
f 345/2/4 340/2/4 346/2/4
f 341/3/4 342/3/4 347/3/4
f 338/2/4 344/2/4 348/2/4
f 348/2/4 344/2/4 349/2/4
f 345/2/4 346/2/4 351/2/4
f 349/2/4 344/2/4 353/2/4
f 350/2/4 351/2/4 354/2/4
f 351/2/4 346/2/4 355/2/4
f 354/2/4 351/2/4 355/2/4
f 352/2/4 353/2/4 356/2/4
f 353/2/4 344/2/4 356/2/4
f 355/2/4 346/2/4 357/2/4
f 346/3/4 347/3/4 358/3/4
f 357/2/4 346/2/4 358/2/4
f 347/3/4 342/3/4 359/3/4
f 358/3/4 347/3/4 359/3/4
f 356/2/4 357/2/4 361/2/4
f 357/2/4 358/2/4 361/2/4
f 352/2/4 356/2/4 361/2/4
f 361/2/4 358/2/4 362/2/4
f 362/2/4 358/2/4 363/2/4
f 363/2/4 358/2/4 364/2/4
f 364/2/4 358/2/4 365/2/4
f 359/3/4 342/3/4 366/3/4
f 342/2/4 343/2/4 367/2/4
f 366/3/4 342/3/4 367/3/4
f 367/2/4 343/2/4 368/2/4
f 360/2/4 361/2/4 369/2/4
f 361/2/4 362/2/4 369/2/4
f 369/2/4 362/2/4 370/2/4
f 363/2/4 364/2/4 371/2/4
f 371/2/4 364/2/4 372/2/4
f 373/2/4 374/2/4 377/2/4
f 375/2/4 376/2/4 378/2/4
f 378/2/4 376/2/4 381/2/4
f 377/2/4 378/2/4 381/2/4
f 379/2/4 380/2/4 383/2/4
f 383/2/4 380/2/4 384/2/4
f 381/2/4 382/2/4 385/2/4
f 377/2/4 381/2/4 385/2/4
f 385/2/4 382/2/4 386/2/4
f 379/2/4 383/2/4 387/2/4
f 373/2/4 377/2/4 389/2/4
f 377/2/4 385/2/4 389/2/4
f 389/2/4 385/2/4 390/2/4
f 387/2/4 388/2/4 391/2/4
f 379/2/4 387/2/4 391/2/4
f 391/2/4 388/2/4 392/2/4
f 390/2/4 385/2/4 393/2/4
f 393/2/4 385/2/4 394/2/4
f 390/2/4 393/2/4 395/2/4
f 395/2/4 393/2/4 396/2/4
f 397/2/4 398/2/4 399/2/4
f 399/2/4 398/2/4 400/2/4
f 400/2/4 398/2/4 401/2/4
f 401/2/4 398/2/4 402/2/4
f 403/2/4 404/2/4 405/2/4
f 405/2/4 404/2/4 406/2/4
f 406/2/4 404/2/4 407/2/4
f 408/1/4 409/1/4 410/1/4
f 410/1/4 409/1/4 411/1/4
f 412/1/4 413/1/4 418/1/4
f 418/1/4 413/1/4 419/1/4
f 414/1/4 415/1/4 420/1/4
f 420/1/4 415/1/4 421/1/4
f 416/2/4 417/2/4 422/2/4
f 422/2/4 417/2/4 423/2/4
f 424/1/4 425/1/4 428/1/4
f 426/2/4 427/2/4 430/2/4
f 430/2/4 427/2/4 431/2/4
f 428/1/4 429/1/4 432/1/4
f 424/1/4 428/1/4 432/1/4
f 432/1/4 429/1/4 433/1/4
f 424/1/4 432/1/4 434/1/4
f 434/1/4 432/1/4 435/1/4
f 433/1/4 429/1/4 436/1/4
f 436/1/4 429/1/4 437/1/4
f 438/1/4 439/1/4 440/1/4
f 440/1/4 439/1/4 441/1/4
f 441/1/4 439/1/4 442/1/4
f 442/1/4 439/1/4 443/1/4
f 441/1/4 442/1/4 444/1/4
f 444/1/4 442/1/4 445/1/4
f 446/1/4 447/1/4 448/1/4
f 448/1/4 447/1/4 449/1/4
f 454/1/5 453/1/5 452/1/5
f 455/1/5 453/1/5 454/1/5
f 456/1/5 451/1/5 450/1/5
f 457/1/5 451/1/5 456/1/5
f 458/1/5 454/1/5 452/1/5
f 459/1/5 454/1/5 458/1/5
f 462/1/5 461/1/5 460/1/5
f 463/1/5 461/1/5 462/1/5
f 468/3/5 465/3/5 464/3/5
f 469/3/5 465/3/5 468/3/5
f 470/3/5 467/3/5 466/3/5
f 471/3/5 467/3/5 470/3/5
f 472/2/5 469/2/5 468/2/5
f 473/2/5 469/2/5 472/2/5
f 474/2/5 471/2/5 470/2/5
f 475/2/5 471/2/5 474/2/5
f 480/1/5 477/1/5 476/1/5
f 481/1/5 477/1/5 480/1/5
f 482/1/5 479/1/5 478/1/5
f 483/1/5 479/1/5 482/1/5
f 486/2/5 485/2/5 484/2/5
f 487/2/5 485/2/5 486/2/5
f 492/2/5 491/2/5 490/2/5
f 493/2/5 491/2/5 492/2/5
f 494/2/5 489/2/5 488/2/5
f 495/2/5 489/2/5 494/2/5
f 498/2/5 497/2/5 496/2/5
f 499/2/5 497/2/5 498/2/5
f 500/2/5 497/2/5 499/2/5
f 501/2/5 497/2/5 500/2/5
f 506/2/5 503/2/5 502/2/5
f 506/2/5 505/2/5 504/2/5
f 506/2/5 504/2/5 503/2/5
f 507/2/5 505/2/5 506/2/5
f 508/2/5 505/2/5 507/2/5
f 509/2/5 505/2/5 508/2/5
f 510/2/5 505/2/5 509/2/5
f 511/2/5 509/2/5 508/2/5
f 512/2/5 509/2/5 511/2/5
f 515/2/5 514/2/5 513/2/5
f 516/2/5 514/2/5 515/2/5
f 521/3/5 518/3/5 517/3/5
f 522/3/5 520/3/5 519/3/5
f 523/3/5 521/3/5 517/3/5
f 524/3/5 521/3/5 523/3/5
f 525/3/5 520/3/5 522/3/5
f 526/3/5 520/3/5 525/3/5
f 531/2/5 528/2/5 527/2/5
f 532/2/5 528/2/5 531/2/5
f 533/2/5 530/2/5 529/2/5
f 534/2/5 530/2/5 533/2/5
f 539/3/5 536/3/5 535/3/5
f 540/3/5 536/3/5 539/3/5
f 541/3/5 538/3/5 537/3/5
f 542/3/5 538/3/5 541/3/5
f 549/2/5 544/2/5 543/2/5
f 550/3/5 545/3/5 544/3/5
f 550/2/5 544/2/5 549/2/5
f 551/1/5 546/1/5 545/1/5
f 551/3/5 545/3/5 550/3/5
f 552/3/5 547/3/5 546/3/5
f 552/1/5 546/1/5 551/1/5
f 553/2/5 548/2/5 547/2/5
f 553/3/5 547/3/5 552/3/5
f 554/2/5 548/2/5 553/2/5
f 555/3/5 550/3/5 549/3/5
f 556/3/5 550/3/5 555/3/5
f 557/3/5 554/3/5 553/3/5
f 558/3/5 554/3/5 557/3/5
f 559/1/6 560/1/6 561/1/6
f 561/1/6 560/1/6 562/1/6
f 563/1/6 564/1/6 565/1/6
f 565/1/6 564/1/6 566/1/6
f 567/3/6 568/3/6 571/3/6
f 571/3/6 568/3/6 572/3/6
f 569/3/6 570/3/6 573/3/6
f 573/3/6 570/3/6 574/3/6
f 571/2/6 572/2/6 575/2/6
f 575/2/6 572/2/6 576/2/6
f 573/2/6 574/2/6 577/2/6
f 577/2/6 574/2/6 578/2/6
f 577/1/6 578/1/6 579/1/6
f 579/1/6 578/1/6 580/1/6
f 575/1/6 576/1/6 581/1/6
f 581/1/6 576/1/6 582/1/6
f 577/1/6 579/1/6 583/1/6
f 583/1/6 579/1/6 584/1/6
f 575/1/6 581/1/6 585/1/6
f 585/1/6 581/1/6 586/1/6
f 589/2/6 590/2/6 591/2/6
f 591/2/6 590/2/6 592/2/6
f 587/2/6 588/2/6 593/2/6
f 593/2/6 588/2/6 594/2/6
f 595/2/6 596/2/6 597/2/6
f 597/2/6 596/2/6 598/2/6
f 599/2/6 600/2/6 603/2/6
f 601/2/6 602/2/6 605/2/6
f 605/2/6 602/2/6 606/2/6
f 603/2/6 604/2/6 607/2/6
f 599/2/6 603/2/6 607/2/6
f 607/2/6 604/2/6 608/2/6
f 609/2/6 610/2/6 613/2/6
f 613/2/6 610/2/6 614/2/6
f 611/2/6 612/2/6 615/2/6
f 615/2/6 612/2/6 616/2/6
f 617/2/6 618/2/6 621/2/6
f 621/2/6 618/2/6 622/2/6
f 619/2/6 620/2/6 623/2/6
f 623/2/6 620/2/6 624/2/6
f 625/2/6 626/2/6 627/2/6
f 627/2/6 626/2/6 628/2/6
f 629/2/6 630/2/6 633/2/6
f 633/2/6 630/2/6 634/2/6
f 631/2/6 632/2/6 639/2/6
f 639/2/6 632/2/6 640/2/6
f 635/2/6 636/2/6 641/2/6
f 641/2/6 636/2/6 642/2/6
f 637/2/6 638/2/6 643/2/6
f 643/2/6 638/2/6 644/2/6
f 645/3/6 646/3/6 649/3/6
f 647/3/6 648/3/6 650/3/6
f 649/2/6 650/2/6 651/2/6
f 651/2/6 650/2/6 652/2/6
f 645/3/6 649/3/6 653/3/6
f 649/2/6 651/2/6 654/2/6
f 653/3/6 649/3/6 654/3/6
f 652/2/6 650/2/6 655/2/6
f 650/3/6 648/3/6 655/3/6
f 655/3/6 648/3/6 656/3/6
f 654/2/6 651/2/6 657/2/6
f 657/2/6 651/2/6 658/2/6
f 652/2/6 655/2/6 659/2/6
f 659/2/6 655/2/6 660/2/6
f 658/2/6 651/2/6 661/2/6
f 661/2/6 651/2/6 662/2/6
f 652/2/6 659/2/6 663/2/6
f 663/2/6 659/2/6 664/2/6
f 665/3/6 666/3/6 667/3/6
f 667/3/6 666/3/6 668/3/6
f 667/2/6 668/2/6 669/2/6
f 669/2/6 668/2/6 670/2/6
