# MagicaVoxel @ Ephtracy

# group
o 

# material
mtllib grave.mtl
usemtl palette

# normals
vn -1 0 0
vn 1 0 0
vn 0 0 1
vn 0 0 -1
vn 0 -1 0
vn 0 1 0

# texcoords
vt 0.0136719 0.5
vt 0.0175781 0.5
vt 0.0371094 0.5
vt 0.0605469 0.5
vt 0.0644531 0.5
vt 0.0683594 0.5
vt 0.0761719 0.5

# verts
v -1.1 0 2
v -1.1 0 -2
v -1.1 0.2 2
v -1.1 0.2 -2
v -1 1.4 -1.5
v -1 1.4 -1.6
v -1 1.5 -1.5
v -1 1.5 -1.6
v -0.9 0.2 1.8
v -0.9 0.2 -1.2
v -0.9 0.2 -2
v -0.9 0.4 1.8
v -0.9 0.4 -1.2
v -0.9 0.7 -1.2
v -0.9 0.7 -1.4
v -0.9 0.7 -1.7
v -0.9 0.7 -2
v -0.9 1 -1.4
v -0.9 1 -1.7
v -0.9 1.2 -1.5
v -0.9 1.2 -1.6
v -0.9 1.4 -1.4
v -0.9 1.4 -1.5
v -0.9 1.4 -1.6
v -0.9 1.4 -1.7
v -0.9 1.5 -1.4
v -0.9 1.5 -1.5
v -0.9 1.5 -1.6
v -0.9 1.5 -1.7
v -0.9 1.6 -1.5
v -0.9 1.6 -1.6
v -0.8 1 -1.5
v -0.8 1 -1.6
v -0.8 1.2 -1.5
v -0.8 1.2 -1.6
v -0.5 0.7 -1.2
v -0.5 0.7 -2
v -0.5 1.2 -1.2
v -0.5 1.2 -2
v 0.6 0.7 -1.4
v 0.6 0.7 -1.7
v 0.6 1 -1.4
v 0.6 1 -1.7
v 0.7 1 -1.5
v 0.7 1 -1.6
v 0.7 1.3 -1.5
v 0.7 1.3 -1.6
v 0.7 1.4 -1.5
v 0.7 1.4 -1.6
v 0.7 1.5 -1.5
v 0.7 1.5 -1.6
v 0.8 1.3 -1.5
v 0.8 1.3 -1.6
v 0.8 1.4 -1.4
v 0.8 1.4 -1.5
v 0.8 1.4 -1.6
v 0.8 1.4 -1.7
v 0.8 1.5 -1.4
v 0.8 1.5 -1.5
v 0.8 1.5 -1.6
v 0.8 1.5 -1.7
v 0.8 1.6 -1.5
v 0.8 1.6 -1.6
v -0.8 1.3 -1.5
v -0.8 1.3 -1.6
v -0.8 1.4 -1.4
v -0.8 1.4 -1.5
v -0.8 1.4 -1.6
v -0.8 1.4 -1.7
v -0.8 1.5 -1.4
v -0.8 1.5 -1.5
v -0.8 1.5 -1.6
v -0.8 1.5 -1.7
v -0.8 1.6 -1.5
v -0.8 1.6 -1.6
v -0.7 1 -1.5
v -0.7 1 -1.6
v -0.7 1.3 -1.5
v -0.7 1.3 -1.6
v -0.7 1.4 -1.5
v -0.7 1.4 -1.6
v -0.7 1.5 -1.5
v -0.7 1.5 -1.6
v -0.6 0.7 -1.4
v -0.6 0.7 -1.7
v -0.6 1 -1.4
v -0.6 1 -1.7
v 0.5 0.7 -1.2
v 0.5 0.7 -2
v 0.5 1.2 -1.2
v 0.5 1.2 -2
v 0.8 1 -1.5
v 0.8 1 -1.6
v 0.8 1.2 -1.5
v 0.8 1.2 -1.6
v 0.9 0.2 1.8
v 0.9 0.2 -1.2
v 0.9 0.2 -2
v 0.9 0.4 1.8
v 0.9 0.4 -1.2
v 0.9 0.7 -1.2
v 0.9 0.7 -1.4
v 0.9 0.7 -1.7
v 0.9 0.7 -2
v 0.9 1 -1.4
v 0.9 1 -1.7
v 0.9 1.2 -1.5
v 0.9 1.2 -1.6
v 0.9 1.4 -1.4
v 0.9 1.4 -1.5
v 0.9 1.4 -1.6
v 0.9 1.4 -1.7
v 0.9 1.5 -1.4
v 0.9 1.5 -1.5
v 0.9 1.5 -1.6
v 0.9 1.5 -1.7
v 0.9 1.6 -1.5
v 0.9 1.6 -1.6
v 1 1.4 -1.5
v 1 1.4 -1.6
v 1 1.5 -1.5
v 1 1.5 -1.6
v 1.1 0 2
v 1.1 0 -2
v 1.1 0.2 2
v 1.1 0.2 -2
v -1.1 0 2
v -1.1 0.2 2
v 1.1 0 2
v 1.1 0.2 2
v -0.9 0.2 1.8
v -0.9 0.4 1.8
v 0.9 0.2 1.8
v 0.9 0.4 1.8
v -0.9 0.4 -1.2
v -0.9 0.7 -1.2
v -0.5 0.7 -1.2
v -0.5 1.2 -1.2
v 0.5 0.7 -1.2
v 0.5 1.2 -1.2
v 0.9 0.4 -1.2
v 0.9 0.7 -1.2
v -0.9 0.7 -1.4
v -0.9 1 -1.4
v -0.9 1.4 -1.4
v -0.9 1.5 -1.4
v -0.8 1.4 -1.4
v -0.8 1.5 -1.4
v -0.6 0.7 -1.4
v -0.6 1 -1.4
v 0.6 0.7 -1.4
v 0.6 1 -1.4
v 0.8 1.4 -1.4
v 0.8 1.5 -1.4
v 0.9 0.7 -1.4
v 0.9 1 -1.4
v 0.9 1.4 -1.4
v 0.9 1.5 -1.4
v -1 1.4 -1.5
v -1 1.5 -1.5
v -0.9 1.2 -1.5
v -0.9 1.4 -1.5
v -0.9 1.5 -1.5
v -0.9 1.6 -1.5
v -0.8 1 -1.5
v -0.8 1.2 -1.5
v -0.8 1.3 -1.5
v -0.8 1.4 -1.5
v -0.8 1.5 -1.5
v -0.8 1.6 -1.5
v -0.7 1 -1.5
v -0.7 1.3 -1.5
v -0.7 1.4 -1.5
v -0.7 1.5 -1.5
v 0.7 1 -1.5
v 0.7 1.3 -1.5
v 0.7 1.4 -1.5
v 0.7 1.5 -1.5
v 0.8 1 -1.5
v 0.8 1.2 -1.5
v 0.8 1.3 -1.5
v 0.8 1.4 -1.5
v 0.8 1.5 -1.5
v 0.8 1.6 -1.5
v 0.9 1.2 -1.5
v 0.9 1.4 -1.5
v 0.9 1.5 -1.5
v 0.9 1.6 -1.5
v 1 1.4 -1.5
v 1 1.5 -1.5
v -1 1.4 -1.6
v -1 1.5 -1.6
v -0.9 1.2 -1.6
v -0.9 1.4 -1.6
v -0.9 1.5 -1.6
v -0.9 1.6 -1.6
v -0.8 1 -1.6
v -0.8 1.2 -1.6
v -0.8 1.3 -1.6
v -0.8 1.4 -1.6
v -0.8 1.5 -1.6
v -0.8 1.6 -1.6
v -0.7 1 -1.6
v -0.7 1.3 -1.6
v -0.7 1.4 -1.6
v -0.7 1.5 -1.6
v 0.7 1 -1.6
v 0.7 1.3 -1.6
v 0.7 1.4 -1.6
v 0.7 1.5 -1.6
v 0.8 1 -1.6
v 0.8 1.2 -1.6
v 0.8 1.3 -1.6
v 0.8 1.4 -1.6
v 0.8 1.5 -1.6
v 0.8 1.6 -1.6
v 0.9 1.2 -1.6
v 0.9 1.4 -1.6
v 0.9 1.5 -1.6
v 0.9 1.6 -1.6
v 1 1.4 -1.6
v 1 1.5 -1.6
v -0.9 0.7 -1.7
v -0.9 1 -1.7
v -0.9 1.4 -1.7
v -0.9 1.5 -1.7
v -0.8 1.4 -1.7
v -0.8 1.5 -1.7
v -0.6 0.7 -1.7
v -0.6 1 -1.7
v 0.6 0.7 -1.7
v 0.6 1 -1.7
v 0.8 1.4 -1.7
v 0.8 1.5 -1.7
v 0.9 0.7 -1.7
v 0.9 1 -1.7
v 0.9 1.4 -1.7
v 0.9 1.5 -1.7
v -1.1 0 -2
v -1.1 0.2 -2
v -0.9 0.2 -2
v -0.9 0.7 -2
v -0.5 0.7 -2
v -0.5 1.2 -2
v 0.5 0.7 -2
v 0.5 1.2 -2
v 0.9 0.2 -2
v 0.9 0.7 -2
v 1.1 0 -2
v 1.1 0.2 -2
v -1.1 0 2
v 1.1 0 2
v -1.1 0 -2
v 1.1 0 -2
v -0.9 1.2 -1.5
v -0.8 1.2 -1.5
v 0.8 1.2 -1.5
v 0.9 1.2 -1.5
v -0.9 1.2 -1.6
v -0.8 1.2 -1.6
v 0.8 1.2 -1.6
v 0.9 1.2 -1.6
v -0.9 1.4 -1.4
v -0.8 1.4 -1.4
v 0.8 1.4 -1.4
v 0.9 1.4 -1.4
v -1 1.4 -1.5
v -0.9 1.4 -1.5
v -0.8 1.4 -1.5
v -0.7 1.4 -1.5
v 0.7 1.4 -1.5
v 0.8 1.4 -1.5
v 0.9 1.4 -1.5
v 1 1.4 -1.5
v -1 1.4 -1.6
v -0.9 1.4 -1.6
v -0.8 1.4 -1.6
v -0.7 1.4 -1.6
v 0.7 1.4 -1.6
v 0.8 1.4 -1.6
v 0.9 1.4 -1.6
v 1 1.4 -1.6
v -0.9 1.4 -1.7
v -0.8 1.4 -1.7
v 0.8 1.4 -1.7
v 0.9 1.4 -1.7
v -1.1 0.2 2
v 1.1 0.2 2
v -0.9 0.2 1.8
v 0.9 0.2 1.8
v -0.9 0.2 -1.2
v 0.9 0.2 -1.2
v -1.1 0.2 -2
v -0.9 0.2 -2
v 0.9 0.2 -2
v 1.1 0.2 -2
v -0.9 0.4 1.8
v 0.9 0.4 1.8
v -0.2 0.4 1.5
v 0.2 0.4 1.5
v -0.6 0.4 -0.1
v -0.2 0.4 -0.1
v 0.2 0.4 -0.1
v 0.6 0.4 -0.1
v -0.6 0.4 -0.5
v -0.2 0.4 -0.5
v 0.2 0.4 -0.5
v 0.6 0.4 -0.5
v -0.2 0.4 -0.9
v 0.2 0.4 -0.9
v -0.9 0.4 -1.2
v 0.9 0.4 -1.2
v -0.9 0.7 -1.2
v -0.5 0.7 -1.2
v 0.5 0.7 -1.2
v 0.9 0.7 -1.2
v -0.9 0.7 -1.4
v -0.6 0.7 -1.4
v 0.6 0.7 -1.4
v 0.9 0.7 -1.4
v -0.9 0.7 -1.7
v -0.6 0.7 -1.7
v 0.6 0.7 -1.7
v 0.9 0.7 -1.7
v -0.9 0.7 -2
v -0.5 0.7 -2
v 0.5 0.7 -2
v 0.9 0.7 -2
v -0.9 1 -1.4
v -0.6 1 -1.4
v 0.6 1 -1.4
v 0.9 1 -1.4
v -0.8 1 -1.5
v -0.7 1 -1.5
v 0.7 1 -1.5
v 0.8 1 -1.5
v -0.8 1 -1.6
v -0.7 1 -1.6
v 0.7 1 -1.6
v 0.8 1 -1.6
v -0.9 1 -1.7
v -0.6 1 -1.7
v 0.6 1 -1.7
v 0.9 1 -1.7
v -0.5 1.2 -1.2
v 0.5 1.2 -1.2
v -0.5 1.2 -2
v 0.5 1.2 -2
v -0.8 1.3 -1.5
v -0.7 1.3 -1.5
v 0.7 1.3 -1.5
v 0.8 1.3 -1.5
v -0.8 1.3 -1.6
v -0.7 1.3 -1.6
v 0.7 1.3 -1.6
v 0.8 1.3 -1.6
v -0.9 1.5 -1.4
v -0.8 1.5 -1.4
v 0.8 1.5 -1.4
v 0.9 1.5 -1.4
v -1 1.5 -1.5
v -0.9 1.5 -1.5
v -0.8 1.5 -1.5
v -0.7 1.5 -1.5
v 0.7 1.5 -1.5
v 0.8 1.5 -1.5
v 0.9 1.5 -1.5
v 1 1.5 -1.5
v -1 1.5 -1.6
v -0.9 1.5 -1.6
v -0.8 1.5 -1.6
v -0.7 1.5 -1.6
v 0.7 1.5 -1.6
v 0.8 1.5 -1.6
v 0.9 1.5 -1.6
v 1 1.5 -1.6
v -0.9 1.5 -1.7
v -0.8 1.5 -1.7
v 0.8 1.5 -1.7
v 0.9 1.5 -1.7
v -0.9 1.6 -1.5
v -0.8 1.6 -1.5
v 0.8 1.6 -1.5
v 0.9 1.6 -1.5
v -0.9 1.6 -1.6
v -0.8 1.6 -1.6
v 0.8 1.6 -1.6
v 0.9 1.6 -1.6

# faces
f 3/5/1 2/5/1 1/5/1
f 4/5/1 2/5/1 3/5/1
f 7/2/1 6/2/1 5/2/1
f 8/2/1 6/2/1 7/2/1
f 12/6/1 10/6/1 9/6/1
f 13/5/1 11/5/1 10/5/1
f 13/6/1 10/6/1 12/6/1
f 14/5/1 11/5/1 13/5/1
f 15/5/1 11/5/1 14/5/1
f 16/5/1 11/5/1 15/5/1
f 17/5/1 11/5/1 16/5/1
f 18/3/1 16/3/1 15/3/1
f 19/3/1 16/3/1 18/3/1
f 23/2/1 21/2/1 20/2/1
f 24/2/1 21/2/1 23/2/1
f 26/2/1 23/2/1 22/2/1
f 27/2/1 23/2/1 26/2/1
f 28/2/1 25/2/1 24/2/1
f 29/2/1 25/2/1 28/2/1
f 30/4/1 28/4/1 27/4/1
f 31/4/1 28/4/1 30/4/1
f 34/1/1 33/1/1 32/1/1
f 35/1/1 33/1/1 34/1/1
f 38/5/1 37/5/1 36/5/1
f 39/5/1 37/5/1 38/5/1
f 42/3/1 41/3/1 40/3/1
f 43/3/1 41/3/1 42/3/1
f 46/1/1 45/1/1 44/1/1
f 47/1/1 45/1/1 46/1/1
f 50/2/1 49/2/1 48/2/1
f 51/2/1 49/2/1 50/2/1
f 55/2/1 53/2/1 52/2/1
f 56/2/1 53/2/1 55/2/1
f 58/2/1 55/2/1 54/2/1
f 59/2/1 55/2/1 58/2/1
f 60/2/1 57/2/1 56/2/1
f 61/2/1 57/2/1 60/2/1
f 62/4/1 60/4/1 59/4/1
f 63/4/1 60/4/1 62/4/1
f 64/2/2 65/2/2 67/2/2
f 67/2/2 65/2/2 68/2/2
f 66/2/2 67/2/2 70/2/2
f 70/2/2 67/2/2 71/2/2
f 68/2/2 69/2/2 72/2/2
f 72/2/2 69/2/2 73/2/2
f 71/4/2 72/4/2 74/4/2
f 74/4/2 72/4/2 75/4/2
f 76/1/2 77/1/2 78/1/2
f 78/1/2 77/1/2 79/1/2
f 80/2/2 81/2/2 82/2/2
f 82/2/2 81/2/2 83/2/2
f 84/3/2 85/3/2 86/3/2
f 86/3/2 85/3/2 87/3/2
f 88/5/2 89/5/2 90/5/2
f 90/5/2 89/5/2 91/5/2
f 92/1/2 93/1/2 94/1/2
f 94/1/2 93/1/2 95/1/2
f 96/6/2 97/6/2 99/6/2
f 97/5/2 98/5/2 100/5/2
f 99/6/2 97/6/2 100/6/2
f 100/5/2 98/5/2 101/5/2
f 101/5/2 98/5/2 102/5/2
f 102/5/2 98/5/2 103/5/2
f 103/5/2 98/5/2 104/5/2
f 102/3/2 103/3/2 105/3/2
f 105/3/2 103/3/2 106/3/2
f 107/2/2 108/2/2 110/2/2
f 110/2/2 108/2/2 111/2/2
f 109/2/2 110/2/2 113/2/2
f 113/2/2 110/2/2 114/2/2
f 111/2/2 112/2/2 115/2/2
f 115/2/2 112/2/2 116/2/2
f 114/4/2 115/4/2 117/4/2
f 117/4/2 115/4/2 118/4/2
f 119/2/2 120/2/2 121/2/2
f 121/2/2 120/2/2 122/2/2
f 123/5/2 124/5/2 125/5/2
f 125/5/2 124/5/2 126/5/2
f 129/5/3 128/5/3 127/5/3
f 130/5/3 128/5/3 129/5/3
f 133/6/3 132/6/3 131/6/3
f 134/6/3 132/6/3 133/6/3
f 137/5/3 136/5/3 135/5/3
f 139/5/3 137/5/3 135/5/3
f 139/5/3 138/5/3 137/5/3
f 140/5/3 138/5/3 139/5/3
f 141/5/3 139/5/3 135/5/3
f 142/5/3 139/5/3 141/5/3
f 147/2/3 146/2/3 145/2/3
f 148/2/3 146/2/3 147/2/3
f 149/3/3 144/3/3 143/3/3
f 150/3/3 144/3/3 149/3/3
f 155/3/3 152/3/3 151/3/3
f 156/3/3 152/3/3 155/3/3
f 157/2/3 154/2/3 153/2/3
f 158/2/3 154/2/3 157/2/3
f 162/2/3 160/2/3 159/2/3
f 163/2/3 160/2/3 162/2/3
f 166/2/3 162/2/3 161/2/3
f 167/2/3 162/2/3 166/2/3
f 168/2/3 162/2/3 167/2/3
f 169/4/3 164/4/3 163/4/3
f 170/4/3 164/4/3 169/4/3
f 171/1/3 166/1/3 165/1/3
f 171/1/3 167/1/3 166/1/3
f 172/1/3 167/1/3 171/1/3
f 173/2/3 169/2/3 168/2/3
f 174/2/3 169/2/3 173/2/3
f 179/1/3 176/1/3 175/1/3
f 180/1/3 176/1/3 179/1/3
f 181/1/3 176/1/3 180/1/3
f 182/2/3 178/2/3 177/2/3
f 183/2/3 178/2/3 182/2/3
f 185/2/3 181/2/3 180/2/3
f 185/2/3 182/2/3 181/2/3
f 186/2/3 182/2/3 185/2/3
f 187/4/3 184/4/3 183/4/3
f 188/4/3 184/4/3 187/4/3
f 189/2/3 187/2/3 186/2/3
f 190/2/3 187/2/3 189/2/3
f 191/2/4 192/2/4 194/2/4
f 194/2/4 192/2/4 195/2/4
f 193/2/4 194/2/4 198/2/4
f 198/2/4 194/2/4 199/2/4
f 199/2/4 194/2/4 200/2/4
f 195/4/4 196/4/4 201/4/4
f 201/4/4 196/4/4 202/4/4
f 197/1/4 198/1/4 203/1/4
f 198/1/4 199/1/4 203/1/4
f 203/1/4 199/1/4 204/1/4
f 200/2/4 201/2/4 205/2/4
f 205/2/4 201/2/4 206/2/4
f 207/1/4 208/1/4 211/1/4
f 211/1/4 208/1/4 212/1/4
f 212/1/4 208/1/4 213/1/4
f 209/2/4 210/2/4 214/2/4
f 214/2/4 210/2/4 215/2/4
f 212/2/4 213/2/4 217/2/4
f 213/2/4 214/2/4 217/2/4
f 217/2/4 214/2/4 218/2/4
f 215/4/4 216/4/4 219/4/4
f 219/4/4 216/4/4 220/4/4
f 218/2/4 219/2/4 221/2/4
f 221/2/4 219/2/4 222/2/4
f 225/2/4 226/2/4 227/2/4
f 227/2/4 226/2/4 228/2/4
f 223/3/4 224/3/4 229/3/4
f 229/3/4 224/3/4 230/3/4
f 231/3/4 232/3/4 235/3/4
f 235/3/4 232/3/4 236/3/4
f 233/2/4 234/2/4 237/2/4
f 237/2/4 234/2/4 238/2/4
f 239/5/4 240/5/4 241/5/4
f 241/5/4 242/5/4 243/5/4
f 241/5/4 243/5/4 245/5/4
f 243/5/4 244/5/4 245/5/4
f 245/5/4 244/5/4 246/5/4
f 239/5/4 241/5/4 247/5/4
f 241/5/4 245/5/4 247/5/4
f 247/5/4 245/5/4 248/5/4
f 239/5/4 247/5/4 249/5/4
f 249/5/4 247/5/4 250/5/4
f 253/5/5 252/5/5 251/5/5
f 254/5/5 252/5/5 253/5/5
f 259/2/5 256/2/5 255/2/5
f 260/2/5 256/2/5 259/2/5
f 261/2/5 258/2/5 257/2/5
f 262/2/5 258/2/5 261/2/5
f 268/2/5 264/2/5 263/2/5
f 269/2/5 264/2/5 268/2/5
f 272/2/5 266/2/5 265/2/5
f 273/2/5 266/2/5 272/2/5
f 275/2/5 268/2/5 267/2/5
f 276/2/5 268/2/5 275/2/5
f 277/2/5 270/2/5 269/2/5
f 278/2/5 270/2/5 277/2/5
f 279/2/5 272/2/5 271/2/5
f 280/2/5 272/2/5 279/2/5
f 281/2/5 274/2/5 273/2/5
f 282/2/5 274/2/5 281/2/5
f 283/2/5 277/2/5 276/2/5
f 284/2/5 277/2/5 283/2/5
f 285/2/5 281/2/5 280/2/5
f 286/2/5 281/2/5 285/2/5
f 287/5/6 288/5/6 289/5/6
f 289/5/6 288/5/6 290/5/6
f 287/5/6 289/5/6 291/5/6
f 290/5/6 288/5/6 292/5/6
f 287/5/6 291/5/6 293/5/6
f 293/5/6 291/5/6 294/5/6
f 292/5/6 288/5/6 295/5/6
f 295/5/6 288/5/6 296/5/6
f 297/6/6 298/6/6 299/6/6
f 299/6/6 298/6/6 300/6/6
f 297/6/6 299/6/6 301/6/6
f 299/7/6 300/7/6 302/7/6
f 301/6/6 299/6/6 302/6/6
f 300/6/6 298/6/6 303/6/6
f 302/7/6 300/7/6 303/7/6
f 303/6/6 298/6/6 304/6/6
f 301/7/6 302/7/6 305/7/6
f 297/6/6 301/6/6 305/6/6
f 303/7/6 304/7/6 305/7/6
f 302/7/6 303/7/6 305/7/6
f 305/7/6 304/7/6 306/7/6
f 306/7/6 304/7/6 307/7/6
f 304/6/6 298/6/6 308/6/6
f 307/7/6 304/7/6 308/7/6
f 306/7/6 307/7/6 309/7/6
f 305/6/6 306/6/6 309/6/6
f 307/6/6 308/6/6 310/6/6
f 309/7/6 307/7/6 310/7/6
f 297/6/6 305/6/6 311/6/6
f 305/6/6 309/6/6 311/6/6
f 309/6/6 310/6/6 311/6/6
f 308/6/6 298/6/6 312/6/6
f 311/6/6 310/6/6 312/6/6
f 310/6/6 308/6/6 312/6/6
f 313/5/6 314/5/6 317/5/6
f 317/5/6 314/5/6 318/5/6
f 315/5/6 316/5/6 319/5/6
f 319/5/6 316/5/6 320/5/6
f 318/5/6 314/5/6 322/5/6
f 315/5/6 319/5/6 323/5/6
f 321/5/6 322/5/6 325/5/6
f 322/5/6 314/5/6 326/5/6
f 325/5/6 322/5/6 326/5/6
f 323/5/6 324/5/6 327/5/6
f 315/5/6 323/5/6 327/5/6
f 327/5/6 324/5/6 328/5/6
f 329/3/6 330/3/6 333/3/6
f 333/3/6 330/3/6 334/3/6
f 331/3/6 332/3/6 335/3/6
f 335/3/6 332/3/6 336/3/6
f 329/3/6 333/3/6 337/3/6
f 334/3/6 330/3/6 338/3/6
f 331/3/6 335/3/6 339/3/6
f 336/3/6 332/3/6 340/3/6
f 329/3/6 337/3/6 341/3/6
f 337/3/6 338/3/6 341/3/6
f 338/3/6 330/3/6 342/3/6
f 341/3/6 338/3/6 342/3/6
f 339/3/6 340/3/6 343/3/6
f 331/3/6 339/3/6 343/3/6
f 340/3/6 332/3/6 344/3/6
f 343/3/6 340/3/6 344/3/6
f 345/5/6 346/5/6 347/5/6
f 347/5/6 346/5/6 348/5/6
f 349/1/6 350/1/6 353/1/6
f 353/1/6 350/1/6 354/1/6
f 351/1/6 352/1/6 355/1/6
f 355/1/6 352/1/6 356/1/6
f 357/2/6 358/2/6 362/2/6
f 362/2/6 358/2/6 363/2/6
f 359/2/6 360/2/6 366/2/6
f 366/2/6 360/2/6 367/2/6
f 361/2/6 362/2/6 369/2/6
f 369/2/6 362/2/6 370/2/6
f 363/2/6 364/2/6 371/2/6
f 371/2/6 364/2/6 372/2/6
f 365/2/6 366/2/6 373/2/6
f 373/2/6 366/2/6 374/2/6
f 367/2/6 368/2/6 375/2/6
f 375/2/6 368/2/6 376/2/6
f 370/2/6 371/2/6 377/2/6
f 377/2/6 371/2/6 378/2/6
f 374/2/6 375/2/6 379/2/6
f 379/2/6 375/2/6 380/2/6
f 381/4/6 382/4/6 385/4/6
f 385/4/6 382/4/6 386/4/6
f 383/4/6 384/4/6 387/4/6
f 387/4/6 384/4/6 388/4/6
